<?xml version="1.0" standalone="no"?>
<!DOCTYPE svg PUBLIC "-//W3C//DTD SVG 20010904//EN"
 "http://www.w3.org/TR/2001/REC-SVG-20010904/DTD/svg10.dtd">
<svg version="1.0" xmlns="http://www.w3.org/2000/svg"
 width="114.000000pt" height="153.000000pt" viewBox="0 0 114.000000 153.000000"
 preserveAspectRatio="xMidYMid meet">

<g transform="translate(0.000000,153.000000) scale(0.100000,-0.100000)"
fill="#000000" stroke="none">
<path d="M0 765 l0 -765 570 0 570 0 0 765 0 765 -570 0 -570 0 0 -765z m650
290 c0 -45 0 -45 35 -45 l35 0 0 -160 0 -160 36 0 c31 0 35 -3 32 -22 l-3 -23
-225 0 -225 0 -3 23 c-3 19 1 22 32 22 l36 0 0 160 0 160 35 0 c35 0 35 0 35
45 l0 45 90 0 90 0 0 -45z m-512 -507 c16 -16 15 -28 -3 -28 -8 0 -15 5 -15
10 0 6 -7 10 -15 10 -10 0 -15 -11 -15 -35 0 -24 5 -35 15 -35 8 0 15 5 15 10
0 6 7 10 15 10 8 0 15 -4 15 -8 0 -15 -24 -32 -45 -32 -30 0 -45 19 -45 55 0
36 15 55 45 55 12 0 26 -5 33 -12z m100 0 c16 -16 16 -70 0 -86 -7 -7 -21 -12
-33 -12 -30 0 -45 19 -45 55 0 36 15 55 45 55 12 0 26 -5 33 -12z m66 -15 l15
-28 1 28 c0 17 5 27 15 27 12 0 15 -13 15 -55 0 -62 -15 -72 -42 -27 l-17 27
-1 -27 c0 -18 -5 -28 -15 -28 -12 0 -15 13 -15 55 0 63 19 74 44 28z m134 15
c16 -16 15 -28 -3 -28 -8 0 -15 5 -15 10 0 6 -7 10 -15 10 -26 0 -16 -18 15
-29 20 -6 30 -17 30 -30 0 -38 -75 -40 -88 -3 -2 7 3 12 12 12 9 0 16 -4 16
-10 0 -5 7 -10 15 -10 21 0 19 18 -4 25 -11 3 -25 12 -31 20 -26 32 38 63 68
33z m52 -34 c0 -59 24 -55 28 4 2 29 8 42 18 42 10 0 14 -12 14 -43 0 -47 -13
-67 -45 -67 -32 0 -45 20 -45 67 0 32 4 43 15 43 11 0 15 -12 15 -46z m100 1
c0 -43 1 -45 30 -45 17 0 30 -4 30 -10 0 -5 -20 -10 -45 -10 l-45 0 0 55 c0
42 3 55 15 55 11 0 15 -12 15 -45z m130 35 c0 -5 -7 -10 -15 -10 -11 0 -15
-12 -15 -45 0 -25 -4 -45 -10 -45 -5 0 -10 20 -10 45 0 33 -4 45 -15 45 -8 0
-15 5 -15 10 0 6 18 10 40 10 22 0 40 -4 40 -10z m91 -17 c6 -15 6 -36 1 -52
-7 -21 -15 -26 -43 -26 -32 0 -34 2 -37 39 -5 53 3 66 38 66 24 0 33 -6 41
-27z m94 -30 c1 -58 -5 -64 -28 -30 l-16 22 0 -22 c-1 -14 -7 -23 -16 -23 -12
0 -15 13 -15 56 l0 55 38 -3 37 -3 0 -52z m55 2 c0 -42 -3 -55 -15 -55 -12 0
-15 13 -15 55 0 42 3 55 15 55 12 0 15 -13 15 -55z m91 28 c6 -15 6 -36 1 -52
-7 -21 -15 -26 -43 -26 -32 0 -34 2 -37 39 -5 53 3 66 38 66 24 0 33 -6 41
-27z"/>
<path d="M540 1045 c0 -8 -7 -15 -15 -15 -8 0 -15 -7 -15 -15 0 -8 7 -15 15
-15 8 0 15 -9 15 -20 0 -13 7 -20 20 -20 13 0 20 7 20 20 0 11 7 20 15 20 8 0
15 7 15 15 0 8 -7 15 -15 15 -8 0 -15 7 -15 15 0 8 -9 15 -20 15 -11 0 -20 -7
-20 -15z"/>
<path d="M470 890 c0 -11 7 -20 15 -20 8 0 15 9 15 20 0 11 -7 20 -15 20 -8 0
-15 -9 -15 -20z"/>
<path d="M547 903 c-14 -13 -6 -33 13 -33 13 0 20 7 20 20 0 19 -20 27 -33 13z"/>
<path d="M620 890 c0 -11 7 -20 15 -20 8 0 15 9 15 20 0 11 -7 20 -15 20 -8 0
-15 -9 -15 -20z"/>
<path d="M470 815 c0 -8 7 -15 15 -15 8 0 15 7 15 15 0 8 -7 15 -15 15 -8 0
-15 -7 -15 -15z"/>
<path d="M540 815 c0 -8 9 -15 20 -15 11 0 20 7 20 15 0 8 -9 15 -20 15 -11 0
-20 -7 -20 -15z"/>
<path d="M620 815 c0 -8 7 -15 15 -15 8 0 15 7 15 15 0 8 -7 15 -15 15 -8 0
-15 -7 -15 -15z"/>
<path d="M547 754 c-4 -4 -7 -20 -7 -36 0 -22 5 -28 21 -28 17 0 20 5 17 32
-3 31 -17 45 -31 32z"/>
<path d="M190 505 c0 -25 4 -35 13 -32 6 2 12 16 12 32 0 16 -6 30 -12 33 -9
2 -13 -8 -13 -33z"/>
<path d="M754 526 c-9 -23 0 -51 16 -51 10 0 15 10 15 29 0 32 -21 47 -31 22z"/>
<path d="M860 525 c0 -9 5 -15 11 -13 6 2 11 8 11 13 0 5 -5 11 -11 13 -6 2
-11 -4 -11 -13z"/>
<path d="M994 526 c-9 -23 0 -51 16 -51 10 0 15 10 15 29 0 32 -21 47 -31 22z"/>
</g>
</svg>
